<svg xmlns="http://www.w3.org/2000/svg" width="167" height="56" fill="none"><g filter="url(#a)"><path fill="url(#b)" fill-rule="evenodd" d="M1.784 5.714C2.054 2.9 4.43.797 7.257.797h152.26c2.837 0 5.22 2.117 5.484 4.942.504 5.38 1.199 14.38 1.199 23.055 0 8.56-.677 17.12-1.179 22.287-.272 2.81-2.647 4.91-5.47 4.91H7.257c-2.827 0-5.203-2.104-5.473-4.918C1.282 45.836.6 37.115.6 28.393c0-8.72.682-17.442 1.184-22.679Z" clip-rule="evenodd"/></g><defs><linearGradient id="b" x1="178.42" x2="156.646" y1="23.72" y2="-39.9" gradientUnits="userSpaceOnUse"><stop stop-color="#C88C61"/><stop offset="1" stop-color="#EBBE9C"/></linearGradient><filter id="a" width="165.6" height="55.193" x=".6" y=".797" color-interpolation-filters="sRGB" filterUnits="userSpaceOnUse"><feFlood flood-opacity="0" result="BackgroundImageFix"/><feBlend in="SourceGraphic" in2="BackgroundImageFix" result="shape"/><feColorMatrix in="SourceAlpha" result="hardAlpha" values="0 0 0 0 0 0 0 0 0 0 0 0 0 0 0 0 0 0 127 0"/><feOffset/><feGaussianBlur stdDeviation="5"/><feComposite in2="hardAlpha" k2="-1" k3="1" operator="arithmetic"/><feColorMatrix values="0 0 0 0 0.898039 0 0 0 0 0.717647 0 0 0 0 0.603922 0 0 0 1 0"/><feBlend in2="shape" result="effect1_innerShadow_0_8685"/></filter></defs></svg>